# MagicaVoxel @ Ephtracy

# group
o 

# material
mtllib Floor.mtl
usemtl palette

# normals
vn -1 0 0
vn 1 0 0
vn 0 0 1
vn 0 0 -1
vn 0 -1 0
vn 0 1 0

# texcoords
vt 0.306641 0.5
vt 0.373047 0.5
vt 0.654297 0.5
vt 0.748047 0.5
vt 0.982422 0.5

# verts
v -0.5 0 0.5
v -0.5 0 -0.5
v -0.5 0.1 0
v -0.5 0.1 -0.1
v -0.5 0.2 0.3
v -0.5 0.2 0.2
v -0.5 0.2 0
v -0.5 0.2 -0.1
v -0.5 0.3 0.3
v -0.5 0.3 0.2
v -0.5 0.4 0.3
v -0.5 0.4 0.2
v -0.5 0.4 -0.1
v -0.5 0.4 -0.2
v -0.5 0.5 0
v -0.5 0.5 -0.1
v -0.5 0.5 -0.2
v -0.5 0.6 0.3
v -0.5 0.6 0.2
v -0.5 0.6 0
v -0.5 0.6 -0.1
v -0.5 0.7 0.5
v -0.5 0.7 -0.5
v -0.5 1 0.5
v -0.5 1 -0.5
v 0.5 0 0.5
v 0.5 0 -0.5
v 0.5 0.3 0.3
v 0.5 0.3 0.2
v 0.5 0.3 -0.1
v 0.5 0.3 -0.2
v 0.5 0.4 0.3
v 0.5 0.4 0.2
v 0.5 0.4 -0.1
v 0.5 0.4 -0.2
v 0.5 0.5 0.3
v 0.5 0.5 0.2
v 0.5 0.5 -0.2
v 0.5 0.5 -0.3
v 0.5 0.6 0.3
v 0.5 0.6 0.2
v 0.5 0.6 -0.2
v 0.5 0.6 -0.3
v 0.5 0.7 0.5
v 0.5 0.7 -0.5
v 0.5 1 0.5
v 0.5 1 -0.5
v -0.5 0 0.5
v -0.5 0.7 0.5
v -0.5 1 0.5
v -0.3 0.4 0.5
v -0.3 0.5 0.5
v -0.2 0.4 0.5
v -0.2 0.5 0.5
v 0.3 0.1 0.5
v 0.3 0.2 0.5
v 0.4 0.1 0.5
v 0.4 0.2 0.5
v 0.5 0 0.5
v 0.5 0.7 0.5
v 0.5 1 0.5
v -0.5 0 -0.5
v -0.5 0.7 -0.5
v -0.5 1 -0.5
v -0.1 0.2 -0.5
v -0.1 0.3 -0.5
v -0.1 0.4 -0.5
v -0.1 0.5 -0.5
v 0 0.2 -0.5
v 0 0.3 -0.5
v 0 0.4 -0.5
v 0 0.5 -0.5
v 0.2 0.3 -0.5
v 0.2 0.5 -0.5
v 0.3 0.3 -0.5
v 0.3 0.5 -0.5
v 0.5 0 -0.5
v 0.5 0.7 -0.5
v 0.5 1 -0.5
v -0.5 0 0.5
v 0.5 0 0.5
v -0.5 0 -0.5
v 0.5 0 -0.5
v -0.5 1 0.5
v 0.5 1 0.5
v 0 1 0.4
v 0.3 1 0.4
v -0.4 1 0.3
v -0.2 1 0.3
v 0 1 0.3
v 0.3 1 0.3
v -0.1 1 0.2
v 0.2 1 0.2
v 0.3 1 0.2
v 0.4 1 0.2
v -0.4 1 0.1
v -0.2 1 0.1
v -0.4 1 0
v -0.2 1 0
v -0.1 1 0
v 0.2 1 0
v -0.1 1 -0.1
v 0.1 1 -0.1
v -0.1 1 -0.3
v 0.1 1 -0.3
v 0.3 1 -0.3
v 0.4 1 -0.3
v -0.4 1 -0.4
v -0.2 1 -0.4
v -0.5 1 -0.5
v 0.5 1 -0.5

# faces
f 3/2/1 2/2/1 1/2/1
f 4/2/1 2/2/1 3/2/1
f 5/2/1 3/2/1 1/2/1
f 6/2/1 3/2/1 5/2/1
f 7/5/1 4/5/1 3/5/1
f 7/2/1 3/2/1 6/2/1
f 8/2/1 2/2/1 4/2/1
f 8/5/1 4/5/1 7/5/1
f 9/5/1 6/5/1 5/5/1
f 9/2/1 5/2/1 1/2/1
f 10/2/1 7/2/1 6/2/1
f 10/5/1 6/5/1 9/5/1
f 10/2/1 8/2/1 7/2/1
f 11/2/1 9/2/1 1/2/1
f 11/2/1 10/2/1 9/2/1
f 12/2/1 8/2/1 10/2/1
f 12/2/1 10/2/1 11/2/1
f 13/2/1 2/2/1 8/2/1
f 13/2/1 8/2/1 12/2/1
f 14/2/1 2/2/1 13/2/1
f 15/2/1 13/2/1 12/2/1
f 16/5/1 14/5/1 13/5/1
f 16/2/1 13/2/1 15/2/1
f 17/2/1 2/2/1 14/2/1
f 17/5/1 14/5/1 16/5/1
f 18/2/1 11/2/1 1/2/1
f 18/5/1 12/5/1 11/5/1
f 19/2/1 15/2/1 12/2/1
f 19/5/1 12/5/1 18/5/1
f 20/5/1 16/5/1 15/5/1
f 20/2/1 15/2/1 19/2/1
f 21/2/1 17/2/1 16/2/1
f 21/5/1 16/5/1 20/5/1
f 22/2/1 20/2/1 19/2/1
f 22/2/1 19/2/1 18/2/1
f 22/2/1 21/2/1 20/2/1
f 22/2/1 18/2/1 1/2/1
f 23/2/1 2/2/1 17/2/1
f 23/2/1 21/2/1 22/2/1
f 23/2/1 17/2/1 21/2/1
f 24/4/1 23/4/1 22/4/1
f 25/4/1 23/4/1 24/4/1
f 26/2/2 27/2/2 28/2/2
f 28/2/2 27/2/2 29/2/2
f 29/2/2 27/2/2 30/2/2
f 30/2/2 27/2/2 31/2/2
f 26/2/2 28/2/2 32/2/2
f 28/5/2 29/5/2 32/5/2
f 29/2/2 30/2/2 33/2/2
f 32/5/2 29/5/2 33/5/2
f 30/5/2 31/5/2 34/5/2
f 33/2/2 30/2/2 34/2/2
f 31/2/2 27/2/2 35/2/2
f 34/5/2 31/5/2 35/5/2
f 33/2/2 34/2/2 36/2/2
f 32/2/2 33/2/2 36/2/2
f 34/2/2 35/2/2 36/2/2
f 26/2/2 32/2/2 36/2/2
f 36/2/2 35/2/2 37/2/2
f 35/2/2 27/2/2 38/2/2
f 37/2/2 35/2/2 38/2/2
f 38/2/2 27/2/2 39/2/2
f 36/5/2 37/5/2 40/5/2
f 26/2/2 36/2/2 40/2/2
f 37/2/2 38/2/2 41/2/2
f 40/5/2 37/5/2 41/5/2
f 38/5/2 39/5/2 42/5/2
f 41/2/2 38/2/2 42/2/2
f 39/2/2 27/2/2 43/2/2
f 42/5/2 39/5/2 43/5/2
f 41/2/2 42/2/2 44/2/2
f 40/2/2 41/2/2 44/2/2
f 42/2/2 43/2/2 44/2/2
f 26/2/2 40/2/2 44/2/2
f 43/2/2 27/2/2 45/2/2
f 44/2/2 43/2/2 45/2/2
f 44/4/2 45/4/2 46/4/2
f 46/4/2 45/4/2 47/4/2
f 51/2/3 49/2/3 48/2/3
f 52/2/3 49/2/3 51/2/3
f 53/2/3 51/2/3 48/2/3
f 53/5/3 52/5/3 51/5/3
f 54/2/3 49/2/3 52/2/3
f 54/5/3 52/5/3 53/5/3
f 55/2/3 53/2/3 48/2/3
f 55/2/3 54/2/3 53/2/3
f 56/2/3 54/2/3 55/2/3
f 57/2/3 55/2/3 48/2/3
f 57/5/3 56/5/3 55/5/3
f 58/2/3 54/2/3 56/2/3
f 58/5/3 56/5/3 57/5/3
f 59/2/3 57/2/3 48/2/3
f 59/2/3 58/2/3 57/2/3
f 60/4/3 50/4/3 49/4/3
f 60/2/3 58/2/3 59/2/3
f 60/2/3 49/2/3 54/2/3
f 60/2/3 54/2/3 58/2/3
f 61/4/3 50/4/3 60/4/3
f 62/2/4 63/2/4 65/2/4
f 65/2/4 63/2/4 66/2/4
f 66/2/4 63/2/4 67/2/4
f 67/2/4 63/2/4 68/2/4
f 62/2/4 65/2/4 69/2/4
f 65/5/4 66/5/4 69/5/4
f 66/2/4 67/2/4 70/2/4
f 69/5/4 66/5/4 70/5/4
f 67/5/4 68/5/4 71/5/4
f 70/2/4 67/2/4 71/2/4
f 68/2/4 63/2/4 72/2/4
f 71/5/4 68/5/4 72/5/4
f 70/2/4 71/2/4 73/2/4
f 69/2/4 70/2/4 73/2/4
f 71/2/4 72/2/4 73/2/4
f 72/2/4 63/2/4 74/2/4
f 73/2/4 72/2/4 74/2/4
f 69/2/4 73/2/4 75/2/4
f 73/5/4 74/5/4 75/5/4
f 74/2/4 63/2/4 76/2/4
f 75/5/4 74/5/4 76/5/4
f 69/2/4 75/2/4 77/2/4
f 62/2/4 69/2/4 77/2/4
f 75/2/4 76/2/4 77/2/4
f 63/4/4 64/4/4 78/4/4
f 77/2/4 76/2/4 78/2/4
f 76/2/4 63/2/4 78/2/4
f 78/4/4 64/4/4 79/4/4
f 82/2/5 81/2/5 80/2/5
f 83/2/5 81/2/5 82/2/5
f 84/4/6 85/4/6 86/4/6
f 86/4/6 85/4/6 87/4/6
f 84/4/6 86/4/6 88/4/6
f 88/4/6 86/4/6 89/4/6
f 86/3/6 87/3/6 90/3/6
f 89/4/6 86/4/6 90/4/6
f 87/4/6 85/4/6 91/4/6
f 90/3/6 87/3/6 91/3/6
f 89/4/6 90/4/6 92/4/6
f 90/4/6 91/4/6 92/4/6
f 92/4/6 91/4/6 93/4/6
f 91/4/6 85/4/6 94/4/6
f 93/4/6 91/4/6 94/4/6
f 94/4/6 85/4/6 95/4/6
f 88/3/6 89/3/6 96/3/6
f 84/4/6 88/4/6 96/4/6
f 89/4/6 92/4/6 97/4/6
f 96/3/6 89/3/6 97/3/6
f 84/4/6 96/4/6 98/4/6
f 96/4/6 97/4/6 98/4/6
f 97/4/6 92/4/6 99/4/6
f 98/4/6 97/4/6 99/4/6
f 92/3/6 93/3/6 100/3/6
f 99/4/6 92/4/6 100/4/6
f 93/4/6 94/4/6 101/4/6
f 100/3/6 93/3/6 101/3/6
f 99/4/6 100/4/6 102/4/6
f 100/4/6 101/4/6 102/4/6
f 102/4/6 101/4/6 103/4/6
f 99/4/6 102/4/6 104/4/6
f 102/3/6 103/3/6 104/3/6
f 103/4/6 101/4/6 105/4/6
f 104/3/6 103/3/6 105/3/6
f 94/3/6 95/3/6 106/3/6
f 105/4/6 101/4/6 106/4/6
f 101/4/6 94/4/6 106/4/6
f 95/4/6 85/4/6 107/4/6
f 106/3/6 95/3/6 107/3/6
f 98/3/6 99/3/6 108/3/6
f 84/4/6 98/4/6 108/4/6
f 105/4/6 106/4/6 109/4/6
f 108/3/6 99/3/6 109/3/6
f 104/4/6 105/4/6 109/4/6
f 99/4/6 104/4/6 109/4/6
f 106/4/6 107/4/6 109/4/6
f 84/4/6 108/4/6 110/4/6
f 108/4/6 109/4/6 110/4/6
f 107/4/6 85/4/6 111/4/6
f 110/4/6 109/4/6 111/4/6
f 109/4/6 107/4/6 111/4/6
